<?xml version="1.0" encoding="UTF-8"?>
<svg id="Layer_1" xmlns="http://www.w3.org/2000/svg" xmlns:xlink="http://www.w3.org/1999/xlink" version="1.1" viewBox="0 0 121 122.5">
  <!-- Generator: Adobe Illustrator 29.2.1, SVG Export Plug-In . SVG Version: 2.1.0 Build 116)  -->
  <defs>
    <style>
      .st0 {
        mask: url(#mask);
      }

      .st1 {
        fill: #fff;
      }

      .st1, .st2 {
        fill-rule: evenodd;
      }

      .st3 {
        fill: none;
        stroke: #7c7c7c;
        stroke-miterlimit: 10;
        stroke-width: 2px;
      }

      .st2 {
        fill: #181818;
      }
    </style>
    <mask id="mask" x="16.1" y="15.6" width="90.2" height="91.3" maskUnits="userSpaceOnUse">
      <g id="mask-2">
        <polygon id="path-1" class="st1" points="16.1 15.6 106.3 15.6 106.3 106.9 16.1 106.9 16.1 15.6"/>
      </g>
    </mask>
  </defs>
  <g id="Page-2">
    <g id="MacBook-Pro-14_x22_-Copy-9">
      <g id="Group-6">
        <path id="Fill-1" class="st2" d="M48.4,48.5l.8-1.6c.2-.4.7-.5,1-.3,0,0,0,0,.1,0v-.3c.5-.7,1.3-1,1.9-.7.6.3.9,1.2.5,1.9l-1.5,3c-.4.7-1.2,1-1.8.7-.6-.3-.8-1-.6-1.7,0,0-.1,0-.2,0-.4-.2-.5-.7-.3-1M52.8,42.6s.9-.7,2.3-1.3c1.4-.6,3.4-1,5.7-.4l1.1.4c3.8,1.6,5.4,5.1,5.5,5.1.2.3,0,.7-.3.8-.4.1-.8,0-.9-.4,0,0,0,0,0-.1,0,0-.1-.2-.2-.4-.2-.3-.5-.7-.9-1.2-.8-.9-2-2-3.5-2.7-.3-.1-.6-.2-.9-.3-3.2-.9-6,.9-6.6,1.4,0,0-.1,0-.1,0-.2.2-.5.2-.7,0,0,0-.2,0-.3-.2-.3-.3-.3-.7,0-.9M68.2,50.2l.2,1.8c0,.4-.3.8-.7.8,0,0,0,0-.1,0v.3c.1.8-.4,1.5-1.1,1.5-.7,0-1.4-.5-1.4-1.3l-.3-3.4c0-.8.4-1.5,1.2-1.5.7,0,1.2.4,1.4,1.1,0,0,.1,0,.2,0,.4,0,.8.3.8.7M51.6,70.1c-.2-1.1-.3-2.2-.4-3.1h-.3c0,.1-3.4.4-4.4,1.1-1,.6-2,1.1-2.7.3-.7-.7-.8-2.3-1-2.3-.2,0-.5.1-.5.7,0,.6-.6,1.6-.9,1.9-.4.2-1.3.5-1.4-.8,0-1.2,1.2-2.9,1.2-2.9,0,0,.3-.3,0-.5-.2-.2-.7,0-1.2.2-.4.2-2.8,1.1-3-.2-.2-1.3,1.3-1.5,1.7-1.5.4,0,1.7.2,2-.2.3-.4.1-1.1-.9-1.7-1-.6-1.9-1.3-1.3-2.2.6-.9,1.5-.4,2,0,.5.5,1,1.5,1.2,1.6.3.1.7-.4.7-.9,0-.5-.4-1.7.1-2.5.5-.8,1.7-.4,1.8.8.1,1.2-.2,1.3-.2,1.7,0,.4-.1,1.1.7.8.8-.4.9-.6,1.1-1,.3-.4,1.2-1,1.5-.6.3.3,1.2,1.1-.5,2-1.6.9-1.8,1.3-1.7,1.6,0,.3.2,1.6.6,1.5.3,0,3.4-1.2,4.8-1.7-.7-6.9-.3-8.8-.3-8.8,0,0,0,0,0,0,.8,0,1.6-.5,2.1-1.3l2.1-3.9c0,0,0-.2.1-.2.4-.9.2-1.8-.3-2.5.8-.8,2.6-2.3,5.4-1.8,3.5.7,4.5,2.3,5.1,3.6-1,.4-1.6,1.5-1.5,2.6l.5,4.3c0,0,0,.2,0,.3.2.8.7,1.4,1.4,1.7-.2,1-.6,2.3-.9,3.7,0,.3-.1.6-.1.9,1.1,0,5.1,0,5.4,0,.4,0,.1-1.3,0-1.6,0-.3-.3-.6-2.2-.9-1.8-.3-1.3-1.3-1.1-1.7.2-.4,1.2-.2,1.6,0,.4.3.6.5,1.4.6.9,0,.6-.6.4-1-.2-.4-.5-.4-.8-1.5-.3-1.2.7-2,1.4-1.4.7.6.8,1.8,1,2.3.2.5.7.8.9.6.2-.2.3-1.3.6-1.9.3-.6,1.1-1.3,1.9-.7.8.6.3,1.6-.5,2.5-.7.9-.6,1.6-.2,1.9.4.3,1.5-.4,1.9-.5.4-.1,1.9-.5,2.1.8.2,1.3-2.3,1.2-2.8,1.2-.5,0-1,0-1.2.2-.1.2.2.4.2.4,0,0,1.8,1.1,2.1,2.3.3,1.2-.6,1.3-1,1.2-.4,0-1.3-.9-1.5-1.4-.2-.5-.6-.5-.7-.4-.2.1.2,1.6-.1,2.5-.4.9-1.4.8-2.6.6-1.2-.2-4.5.7-4.5.7h-.2c.2.2.5.5.8.7,2.1,1.3,6.8-.1,10.8,0,2.3,0,5.4.8,8.9,2.3.9-1.2,2.4-3.1,3-4,0-.3,0-.6,0-.9-.4-.3-1.1-.7-1.3-.8-.3-.2-.8-.1-2.4,1.5-1.6,1.6-2.1.3-2.4-.2-.3-.5.7-1.3,1.2-1.5.6-.2.9-.2,1.6-1,.7-.8-.1-1-.7-1-.5,0-.7.2-2.1-.3-1.3-.5-1.4-2.1-.3-2.4,1.1-.3,2.3.5,2.9.7.6.2,1.3,0,1.2-.5,0-.4-1-1.2-1.4-2-.4-.7-.5-2,.6-2.3,1.2-.3,1.7.9,2.1,2.2.2.6.4,1.1.7,1.3-1.8-14.2-14-25.1-28.7-25.1s-28.9,12.9-28.9,28.9,12.9,28.9,28.9,28.9,2,0,2.9-.1c0-1.3,0-2.3,0-2.3,0,0,.7-1.2,1,0,0,.4.3,1.1.5,2.1,4.2-.6,8.1-2.2,11.5-4.4-7.4.1-23.1-2.1-25.1-15.3"/>
        <g id="Group-5">
          <g class="st0">
            <path id="Fill-3" class="st2" d="M106.3,53.9s0,0,0-.1c0,0,0,0,0-.1,0,0,0-.1,0-.2-2.1-12.2-9-22.5-18.4-29.3-4.6-3.3-9.9-5.8-15.6-7.2,0,0-.2,0-.2,0h0s0,0-.1,0c0,0,0,0-.1,0,0,0-.1,0-.2,0-12.1-2.8-24.3-.5-34.1,5.5-9.9,6-17.6,15.8-20.6,27.9,0,0,0,.2,0,.3-.4,1.5.4,3,1.7,3.3l8.5,2.1c1.3.3,2.6-.6,3-2.1h0c2.1-8.6,7.5-15.6,14.5-19.9,3.4-2.1,7.3-3.5,11.3-4.2,0,0,.1,0,.2,0h0c8.8-1.4,17.3.8,24,5.6,6.7,4.8,11.5,12.1,13,20.9h0c.3,1.4,1.5,2.3,2.8,2.1l8.7-1.4c1.2-.2,2.1-1.5,1.9-2.9h0ZM103.9,68.7l-8.5-2.1c-1.3-.3-2.6.6-3,2.1h0c-2.1,8.6-7.5,15.6-14.5,19.9-3.4,2.1-7.3,3.5-11.3,4.2,0,0-.1,0-.2,0h0c0,0-.2,0-.3,0,.3,1.3.7,2.5,1,3.2.9,2.2,2.7,5.7,7.1,7.5.7.3,1.5.5,2.3.6,2.9-1,5.8-2.4,8.4-4,1.4-.9,2.8-1.8,4.1-2.8,0,0,0-.2,0-.3l.8-.3c7.5-6,13.2-14.5,15.7-24.5,0,0,0-.2,0-.3.4-1.5-.4-3-1.7-3.3h0ZM64.2,93.2c-8,.7-15.6-1.5-21.7-5.9-6.7-4.8-11.5-12.1-13-20.9h0c-.3-1.4-1.5-2.3-2.8-2.1l-8.7,1.4c-1.2.2-2.1,1.5-1.9,2.9h0s0,0,0,.1c0,0,0,0,0,.1,0,0,0,.1,0,.2,2.1,12.2,9,22.5,18.4,29.3,4.6,3.3,9.9,5.8,15.6,7.2,0,0,.1,0,.2,0h0s0,0,.1,0c0,0,0,0,.1,0,0,0,.1,0,.2,0,7.1,1.7,14.3,1.5,21,0-2-1.2-3.5-2.7-4.5-4.4-2-3.2-2.6-5.9-3-8.1Z"/>
          </g>
        </g>
      </g>
    </g>
  </g>
  <rect class="st3" x="1.4" y="2.2" width="118.1" height="118.1" rx="27.4" ry="27.4"/>
</svg>